<?xml version="1.0" encoding="UTF-8" standalone="no"?>
<svg
   width="64"
   height="48"
   style="vertical-align: text-bottom;"
   overflow="hidden"
   version="1.1"
   id="svg22"
   sodipodi:docname="Icone Temp'Orb.svg"
   viewBox="0 0 59.333337 39.666686"
   inkscape:version="1.2.1 (9c6d41e410, 2022-07-14)"
   xmlns:inkscape="http://www.inkscape.org/namespaces/inkscape"
   xmlns:sodipodi="http://sodipodi.sourceforge.net/DTD/sodipodi-0.dtd"
   xmlns="http://www.w3.org/2000/svg"
   xmlns:svg="http://www.w3.org/2000/svg">
  <defs
     id="defs26" />
  <sodipodi:namedview
     id="namedview24"
     pagecolor="#ffffff"
     bordercolor="#000000"
     borderopacity="0.25"
     inkscape:showpageshadow="2"
     inkscape:pageopacity="0.0"
     inkscape:pagecheckerboard="0"
     inkscape:deskcolor="#d1d1d1"
     showgrid="false"
     inkscape:zoom="6.6190476"
     inkscape:cx="59.147482"
     inkscape:cy="41.395684"
     inkscape:window-width="3840"
     inkscape:window-height="2050"
     inkscape:window-x="3348"
     inkscape:window-y="-12"
     inkscape:window-maximized="1"
     inkscape:current-layer="svg22" />
  <g
     id="g20"
     transform="translate(-64.833325,-78.495271)">
    <path
       d="M 67,106.5 C 67,100.149 79.0883,95 94,95 c 14.912,0 27,5.149 27,11.5 0,6.351 -12.088,11.5 -27,11.5 -14.9117,0 -27,-5.149 -27,-11.5 z"
       fill-rule="evenodd"
       id="path4" />
    <path
       d="M 66,106.5 C 66,100.149 78.7599,95 94.5,95 110.24,95 123,100.149 123,106.5 123,112.851 110.24,118 94.5,118 78.7599,118 66,112.851 66,106.5 Z"
       fill-rule="evenodd"
       id="path6" />
    <path
       d="m 65,103 c 0,-6.0751 13.2076,-11 29.5,-11 16.292,0 29.5,4.9249 29.5,11 0,6.075 -13.208,11 -29.5,11 C 78.2076,114 65,109.075 65,103 Z"
       fill="#ffffff"
       fill-rule="evenodd"
       id="path8"
       style="fill:#ffffff;fill-opacity:1" />
    <path
       d="M 65,99.5 C 65,93.1487 78.2076,88 94.5,88 110.792,88 124,93.1487 124,99.5 124,105.851 110.792,111 94.5,111 78.2076,111 65,105.851 65,99.5 Z"
       fill-rule="evenodd"
       id="path10" />
    <path
       d="M 65,97.5 C 65,91.1487 78.2076,86 94.5,86 110.792,86 124,91.1487 124,97.5 124,103.851 110.792,109 94.5,109 78.2076,109 65,103.851 65,97.5 Z"
       fill="#ffffff"
       fill-rule="evenodd"
       id="path12"
       style="fill:#ffffff;fill-opacity:1" />
    <path
       d="m 65.045563,93.25067 c 0,-6.351299 13.207601,-11.499999 29.500001,-11.499999 16.291996,0 29.499996,5.1487 29.499996,11.499999 0,6.351 -13.208,11.5 -29.499996,11.5 -16.2924,0 -29.500001,-5.149 -29.500001,-11.5 z"
       fill="#ffffff"
       fill-rule="evenodd"
       id="path12-8"
       style="fill:#ffffff;fill-opacity:1;stroke-width:1" />
    <path
       d="m 66,89.534145 c 0,-6.0751 12.7599,-11 28.5,-11 15.74,0 28.5,4.9249 28.5,11 0,6.0751 -12.76,11.000005 -28.5,11.000005 -15.7401,0 -28.5,-4.924905 -28.5,-11.000005 z"
       fill-rule="evenodd"
       id="path14" />
    <path
       d="m 68.126198,109.44659 c -1.6569,0 -3,-5.149 -3,-11.499905 0,-6.3466 1.3412,-11.4934 2.9968,-11.5"
       stroke="#000000"
       stroke-width="0.666667"
       stroke-miterlimit="8"
       fill="none"
       fill-rule="evenodd"
       id="path16" />
    <path
       d="m 120.96584,109.55341 c 1.65686,0 3.00001,-5.14872 3.00001,-11.499995 0,-6.3466 -1.34125,-11.4934 -2.99689,-11.5"
       stroke="#000000"
       stroke-width="0.666667"
       stroke-miterlimit="8"
       fill="none"
       fill-rule="evenodd"
       id="path18" />
  </g>
</svg>
